# xmcd
#
# Track frame offsets:
#	150
#	17401
#	33601
#	55979
#	93693
#
# Disc length: 2405 seconds
#
# Revision: 1
# Processed by: cddbd v1.5.2PL0 Copyright (c) Steve Scherf et al.
# Submitted via: audiograbber 1.83.01
#
DISCID=3a096305
DTITLE=Storehouse - Storehouse - Secret Weapon
DYEAR=2007
DGENRE=Blues
TTITLE0=Before This Time Another Year
TTITLE1=Why Don't You Live So God Can Use You?
TTITLE2=How Many More Years?
TTITLE3=Broke And Hungry
TTITLE4=Data Track
EXTD=New Zealand Band
EXTT0=
EXTT1=
EXTT2=
EXTT3=
EXTT4=
PLAYORDER=
